# xmcd
#
# Track frame offsets:
# 150
# 24620
# 38158
# 56149
# 69283
# 95386
# 118360
# 150011
# 170974
# 188025
# 210965
# 227334
# 243830
# 261530
# 282106
#
# Disc length: 3951 seconds
#
#
# Revision: 0
# Processed by: cddbd v1.4PL0 Copyright (c) Steve Scherf et al.
# Submitted via: FreeRIP 2.12 
#
DISCID=c70f6d0f
DTITLE=Old Man's All-stars - Old Man's All-Stars Songbook 2
DYEAR=2002
DGENRE=Blues
TTITLE0=Takats Tamas DBB - Old Man's Boogie
TTITLE1=Besenyo BB - Oreg jargany szivatoval indul
TTITLE2=Hobo BB - Rock'n'roll kiralyno
TTITLE3=Cotton Club Singers - That Cat Is High
TTITLE4=Deak Bill Gyula - Nem haragszom senkire
TTITLE5=Ferenczi Gyorgy n Herfli Dav. Haho
TTITLE6=Boom Boom - Sun or Rain
TTITLE7=Jeff Porcaro Emlekzenekar - Africa
TTITLE8=LB27 - Kell hogy szallj
TTITLE9=Muddy Shoes - One Place Tonight
TTITLE10=Torok Adam es a Mini - Alligator
TTITLE11=Rudi, a pincer - That Mellow Saxophone
TTITLE12=Arpa Attila - Your Lover
TTITLE13=Dupla Johnny -  He Ain't Heavy
TTITLE14=Nagy Fero - Lady Karneval
EXTD=
EXTT0=
EXTT1=
EXTT2=
EXTT3=
EXTT4=
EXTT5=
EXTT6=
EXTT7=
EXTT8=
EXTT9=
EXTT10=
EXTT11=
EXTT12=
EXTT13=
EXTT14=
PLAYORDER=
